<svg xmlns="http://www.w3.org/2000/svg">
    <symbol viewBox="0 0 100.797 100.09799" id="Crown">
        <path d="M15.4923 85.4798C-3.99743 65.9901 -3.99743 34.2813 15.4923 14.7916C34.982 -4.69811 66.6907 -4.69811 86.1804 14.7916C105.67 34.2813 105.67 65.9901 86.1804 85.4798C66.6907 104.97 34.982 104.97 15.4923 85.4798ZM83.8248 17.1473C65.6338 -1.04379 36.039 -1.04379 17.8527 17.1473C-0.338378 35.3383 -0.338378 64.9331 17.8527 83.1194C36.0437 101.31 65.6385 101.31 83.8248 83.1194C102.016 64.9284 102.016 35.3336 83.8248 17.1473Z" fill="white"/>
        <path d="M84.364 39.533C84.1887 39.3576 84.0465 39.1348 83.9659 38.8884C82.2359 33.7695 79.411 29.2336 75.5718 25.3944C71.7374 21.56 67.1968 18.7351 62.0779 17.0004C61.4001 16.7681 60.9451 16.1377 60.9451 15.422V3.27414C60.9451 2.76225 61.182 2.27879 61.5849 1.96123C61.9925 1.64367 62.5186 1.53466 63.0116 1.65789C71.7611 3.84764 79.7712 8.38829 86.1698 14.7916C92.5685 21.195 97.1091 29.2004 99.2989 37.9499C99.4221 38.4476 99.3084 38.9737 98.9955 39.3813C98.678 39.7889 98.1945 40.0212 97.6826 40.0212H85.5347C85.0797 40.0212 84.6626 39.8363 84.3545 39.5282L84.364 39.533ZM77.9275 23.0388C81.8425 26.9538 84.7953 31.5418 86.7197 36.6892H95.5071C93.2984 29.3331 89.2839 22.6122 83.819 17.1473C78.3541 11.6824 71.6332 7.66786 64.2818 5.46389V14.2513C69.4292 16.1709 74.0172 19.1238 77.9322 23.0435L77.9275 23.0388Z" fill="white"/>
        <path d="M15.4909 85.4797C9.09225 79.0811 4.54685 71.0709 2.3571 62.3214C2.23386 61.8238 2.34762 61.2976 2.66045 60.8948C2.97801 60.4871 3.46144 60.2549 3.97333 60.2549H16.1212C16.8369 60.2549 17.4721 60.7099 17.6996 61.3877C19.4296 66.5066 22.2544 71.0425 26.0936 74.8817C29.928 78.7161 34.4687 81.541 39.5876 83.2757C40.2654 83.5032 40.7204 84.1383 40.7204 84.854V97.0019C40.7204 97.5138 40.4834 97.9973 40.0805 98.3148C39.6729 98.6324 39.1468 98.7414 38.6491 98.6182C29.8996 96.4284 21.8942 91.8878 15.4909 85.4892V85.4797ZM6.15836 63.5822C8.36707 70.9382 12.3816 77.6591 17.8465 83.124C23.3114 88.5889 30.0323 92.6035 37.3884 94.8122V86.0247C32.241 84.1051 27.653 81.1523 23.738 77.2373C19.823 73.3223 16.8701 68.7343 14.9458 63.5869H6.15836V63.5822Z" fill="white"/>
        <path d="M61.4411 98.1728C61.1283 97.86 60.9529 97.4382 60.9529 96.9926V84.8447C60.9529 84.129 61.4079 83.4939 62.0857 83.2664C67.2046 81.5364 71.7405 78.7115 75.5796 74.8724C79.4188 71.0332 82.2389 66.4973 83.9737 61.3784C84.2012 60.7006 84.8363 60.2456 85.552 60.2456H97.6999C98.2118 60.2456 98.6953 60.4826 99.0128 60.8855C99.3304 61.2883 99.4394 61.8192 99.3162 62.3121C97.1217 71.0616 92.581 79.067 86.1824 85.4704C79.7838 91.8737 71.7737 96.4144 63.0241 98.6041C62.5265 98.7274 62.0004 98.6136 61.5975 98.3008C61.5453 98.2534 61.4932 98.2108 61.4458 98.1634L61.4411 98.1728ZM64.2849 86.0202V94.8076C71.641 92.5989 78.3619 88.5844 83.8268 83.1195C89.2917 77.6546 93.3015 70.9337 95.5149 63.5776H86.7275C84.8079 68.7249 81.855 73.3082 77.9353 77.228C74.0203 81.143 69.4323 84.1006 64.2849 86.0202Z" fill="white"/>
        <path d="M2.79389 39.533C2.74649 39.4856 2.69911 39.4334 2.66119 39.3813C2.34363 38.9784 2.23461 38.4476 2.35784 37.9499C4.54759 29.2004 9.08825 21.1903 15.4916 14.7916C21.895 8.39302 29.9003 3.84763 38.6498 1.65788C39.1475 1.53465 39.6736 1.64839 40.0765 1.96122C40.4794 2.27878 40.7164 2.76224 40.7164 3.27413V15.422C40.7164 16.1377 40.2614 16.7728 39.5836 17.0003C34.4647 18.7303 29.9288 21.5552 26.0896 25.3944C22.2552 29.2288 19.4303 33.7695 17.6956 38.8884C17.4681 39.5661 16.833 40.0212 16.1173 40.0212H3.96936C3.52382 40.0212 3.09723 39.8458 2.78914 39.5377L2.79389 39.533ZM37.3844 5.46387C30.0283 7.67258 23.3074 11.6871 17.8425 17.152C12.3776 22.6169 8.36781 29.3378 6.15436 36.6939H14.9418C16.8614 31.5466 19.8142 26.9632 23.734 23.0435C27.649 19.1285 32.237 16.1756 37.3844 14.2513V5.46387Z" fill="white"/>
        <path d="M77.9316 23.0387C62.9921 8.09915 38.6773 8.09441 23.7377 23.0387C8.79339 37.9831 8.79813 62.2931 23.7377 77.2327C38.6773 92.1723 62.9873 92.177 77.9316 77.2327C92.876 62.2884 92.8712 37.9783 77.9316 23.0387Z" fill="white"/>
        <path d="M64.6544 63.8133L37.1268 63.9958C35.9672 64.0035 35.0333 64.9498 35.041 66.1094L35.0475 67.0905C35.0552 68.2501 36.0015 69.1839 37.1611 69.1762L64.6888 68.9937C65.8484 68.986 66.7822 68.0397 66.7745 66.8801L66.768 65.899C66.7603 64.7394 65.814 63.8056 64.6544 63.8133Z" fill="#110A1D"/>
        <path d="M40.8773 47.1973C40.5787 47.1973 40.2754 47.1309 40.0005 46.9982L37.8534 45.9602C36.9197 45.5052 36.4931 44.4008 36.8817 43.4387L37.8676 40.9835C38.171 40.2346 38.8867 39.7464 39.6924 39.7417C40.0384 39.7417 40.3797 39.827 40.683 40.0024L43.2425 41.4622C43.7212 41.7324 44.0672 42.2016 44.1904 42.7419C44.3136 43.2823 44.2046 43.851 43.8918 44.3061L42.4889 46.3394C42.1239 46.8702 41.5172 47.1925 40.8726 47.1925L40.8773 47.1973Z" fill="#110A1D"/>
        <path d="M60.6922 47.0645C60.0476 47.0645 59.4362 46.7565 59.0665 46.2304L57.6777 44.2729C57.3554 43.8226 57.2417 43.2538 57.3555 42.7135C57.4692 42.1732 57.8105 41.6992 58.2892 41.4195L60.9292 39.8697C61.2278 39.6943 61.5691 39.5995 61.9151 39.5948C62.7208 39.59 63.446 40.0687 63.7588 40.8129L64.7542 43.1969C65.1523 44.1544 64.7399 45.2682 63.8157 45.7327L61.5691 46.856C61.2989 46.9887 60.9955 47.0645 60.6969 47.0645H60.6922Z" fill="#110A1D"/>
        <path d="M38.7148 62.1557C37.5061 62.1651 36.4208 61.4068 36.0084 60.2693L31.4156 47.6284C31.1218 47.7706 30.8089 47.8796 30.4914 47.9602C30.1169 48.055 29.7377 48.1024 29.3538 48.1024C29.1311 48.1024 28.913 48.0929 28.6997 48.0645C26.3062 47.7611 24.4909 45.7088 24.4767 43.2916C24.4577 40.6184 26.619 38.4286 29.2922 38.4097C31.9654 38.3907 34.1552 40.552 34.1694 43.2252C34.1694 43.8414 34.0651 44.4339 33.8471 44.9884C33.7286 45.2918 33.5817 45.5809 33.411 45.8558L42.1463 50.0836L48.8294 40.4004C48.5497 40.2819 48.2795 40.1349 48.0236 39.9596C47.5401 39.6325 47.1183 39.2249 46.777 38.7462C46.1988 37.931 45.886 36.9688 45.8812 35.9735C45.8623 33.3003 48.0236 31.1105 50.6968 31.0916C50.8153 31.0916 50.9385 31.0915 51.057 31.101C53.4506 31.2622 55.3844 33.1818 55.5597 35.5753C55.6403 36.7081 55.3417 37.7935 54.6971 38.7178C54.3559 39.2012 53.9387 39.6136 53.46 39.9406C53.2088 40.116 52.9387 40.2629 52.659 40.3814L59.4605 49.9651L68.0536 45.6662C67.8925 45.3581 67.7645 45.0358 67.6697 44.6993C67.556 44.2917 67.4944 43.8651 67.4944 43.4338C67.4944 43.2394 67.5038 43.0451 67.5228 42.8555C67.7977 40.4193 69.8547 38.5708 72.3051 38.5566C74.9783 38.5377 77.1681 40.699 77.1823 43.3722C77.2013 45.9221 75.2201 48.0645 72.6749 48.2398L72.3715 48.2493C71.8786 48.2493 71.3952 48.183 70.9259 48.0408C70.6226 47.946 70.3287 47.8275 70.0538 47.6758L65.7406 60.0702C65.3473 61.2125 64.2666 61.9803 63.0579 61.9898L38.7148 62.1509V62.1557Z" fill="#110A1D"/>
    </symbol>
    <symbol viewBox="0 0 100.794 172.878" id="Crown-1">
        <path d="M15.4881 155.26C-4.00158 135.77 -4.00158 104.061 15.4881 84.5716C34.9779 65.0819 66.6866 65.0819 86.1763 84.5716C105.666 104.061 105.666 135.77 86.1763 155.26C66.6866 174.75 34.9779 174.75 15.4881 155.26ZM83.8207 86.9273C65.6296 68.7362 36.0348 68.7362 17.8485 86.9273C-0.342528 105.118 -0.342528 134.713 17.8485 152.899C36.0396 171.09 65.6344 171.09 83.8207 152.899C102.012 134.708 102.012 105.114 83.8207 86.9273Z" fill="white"/>
        <path d="M84.3638 109.313C84.1884 109.138 84.0462 108.915 83.9657 108.668C82.2357 103.55 79.4108 99.0136 75.5716 95.1744C71.7372 91.34 67.1965 88.5151 62.0776 86.7804C61.3998 86.5481 60.9448 85.9178 60.9448 85.2021V73.0542C60.9448 72.5423 61.1818 72.0588 61.5847 71.7413C61.9923 71.4237 62.5184 71.3147 63.0113 71.4379C71.7609 73.6277 79.771 78.1683 86.1696 84.5717C92.5682 90.975 97.1089 98.9804 99.2987 107.73C99.4219 108.228 99.3081 108.754 98.9953 109.161C98.6777 109.569 98.1943 109.801 97.6824 109.801H85.5345C85.0795 109.801 84.6624 109.616 84.3543 109.308L84.3638 109.313ZM77.9272 92.8188C81.8422 96.7338 84.7951 101.322 86.7194 106.469H95.5069C93.2982 99.1131 89.2836 92.3922 83.8187 86.9273C78.3538 81.4624 71.6329 77.4479 64.2816 75.2439V84.0314C69.4289 85.9509 74.017 88.9038 77.932 92.8235L77.9272 92.8188Z" fill="white"/>
        <path d="M15.4867 155.26C9.0881 148.861 4.5427 140.851 2.35295 132.101C2.22971 131.604 2.34347 131.078 2.6563 130.675C2.97386 130.267 3.45729 130.035 3.96918 130.035H16.1171C16.8328 130.035 17.4679 130.49 17.6954 131.168C19.4254 136.287 22.2503 140.823 26.0894 144.662C29.9239 148.496 34.4646 151.321 39.5835 153.056C40.2612 153.283 40.7162 153.918 40.7162 154.634V166.782C40.7162 167.294 40.4792 167.777 40.0764 168.095C39.6687 168.412 39.1426 168.521 38.645 168.398C29.8954 166.208 21.8901 161.668 15.4867 155.269V155.26ZM6.15421 133.362C8.36292 140.718 12.3774 147.439 17.8423 152.904C23.3072 158.369 30.0282 162.384 37.3842 164.592V155.805C32.2369 153.885 27.6488 150.932 23.7338 147.017C19.8188 143.102 16.866 138.514 14.9416 133.367H6.15421V133.362Z" fill="white"/>
        <path d="M61.433 167.953C61.1202 167.64 60.9448 167.218 60.9448 166.773V154.625C60.9448 153.909 61.3998 153.274 62.0776 153.046C67.1965 151.316 71.7324 148.492 75.5716 144.652C79.4108 140.813 82.2309 136.277 83.9656 131.158C84.1931 130.481 84.8283 130.026 85.544 130.026H97.6919C98.2038 130.026 98.6872 130.263 99.0048 130.665C99.3223 131.068 99.4314 131.599 99.3081 132.092C97.1136 140.842 92.573 148.847 86.1743 155.25C79.7757 161.654 71.7656 166.194 63.0161 168.384C62.5184 168.507 61.9923 168.394 61.5894 168.081C61.5373 168.033 61.4852 167.991 61.4378 167.943L61.433 167.953ZM64.2769 155.8V164.588C71.6329 162.379 78.3538 158.364 83.8187 152.9C89.2836 147.435 93.2934 140.714 95.5069 133.358H86.7194C84.7998 138.505 81.847 143.088 77.9272 147.008C74.0122 150.923 69.4242 153.881 64.2769 155.8Z" fill="white"/>
        <path d="M2.78974 109.313C2.74234 109.266 2.69496 109.213 2.65704 109.161C2.33948 108.758 2.23046 108.228 2.35369 107.73C4.54344 98.9804 9.0841 90.9703 15.4875 84.5717C21.8908 78.173 29.8962 73.6277 38.6457 71.4379C39.1434 71.3147 39.6695 71.4284 40.0724 71.7412C40.4752 72.0588 40.7123 72.5423 40.7123 73.0542V85.2021C40.7123 85.9178 40.2572 86.5529 39.5795 86.7804C34.4606 88.5104 29.9246 91.3352 26.0854 95.1744C22.251 99.0088 19.4262 103.549 17.6914 108.668C17.4639 109.346 16.8288 109.801 16.1131 109.801H3.96521C3.51967 109.801 3.09307 109.626 2.78499 109.318L2.78974 109.313ZM37.3802 75.2439C30.0242 77.4526 23.3032 81.4672 17.8383 86.9321C12.3734 92.3969 8.36366 99.1179 6.15021 106.474H14.9376C16.8572 101.327 19.8101 96.7433 23.7298 92.8235C27.6448 88.9085 32.2329 85.9557 37.3802 84.0313V75.2439Z" fill="white"/>
        <path d="M77.9314 92.8188C62.9918 77.8792 38.6771 77.8744 23.7375 92.8188C8.79315 107.763 8.79789 132.073 23.7375 147.013C38.6771 161.952 62.9871 161.957 77.9314 147.013C92.8757 132.068 92.871 107.758 77.9314 92.8188Z" fill="white"/>
        <path d="M64.6503 133.593L37.1226 133.776C35.963 133.784 35.0292 134.73 35.0369 135.889L35.0434 136.871C35.0511 138.03 35.9974 138.964 37.157 138.956L64.6846 138.774C65.8442 138.766 66.7781 137.82 66.7704 136.66L66.7639 135.679C66.7562 134.519 65.8099 133.586 64.6503 133.593Z" fill="#110A1D"/>
        <path d="M40.8732 116.977C40.5746 116.977 40.2713 116.911 39.9964 116.778L37.8492 115.74C36.9155 115.285 36.4889 114.181 36.8776 113.219L37.8635 110.764C38.1668 110.015 38.8825 109.526 39.6883 109.522C40.0343 109.522 40.3755 109.607 40.6788 109.782L43.2383 111.242C43.717 111.512 44.063 111.982 44.1862 112.522C44.3095 113.062 44.2005 113.631 43.8876 114.086L42.4847 116.119C42.1197 116.65 41.513 116.973 40.8684 116.973L40.8732 116.977Z" fill="#110A1D"/>
        <path d="M60.6919 116.845C60.0473 116.845 59.4359 116.537 59.0663 116.01L57.6775 114.053C57.3552 113.603 57.2415 113.034 57.3552 112.494C57.469 111.953 57.8102 111.479 58.2889 111.2L60.9289 109.65C61.2275 109.474 61.5688 109.38 61.9148 109.375C62.7206 109.37 63.4458 109.849 63.7586 110.593L64.7539 112.977C65.152 113.934 64.7397 115.048 63.8155 115.513L61.5688 116.636C61.2987 116.769 60.9953 116.845 60.6967 116.845H60.6919Z" fill="#110A1D"/>
        <path d="M38.7106 131.936C37.502 131.945 36.4166 131.187 36.0043 130.049L31.4115 117.408C31.1176 117.551 30.8048 117.66 30.4872 117.74C30.1128 117.835 29.7336 117.882 29.3497 117.882C29.1269 117.882 28.9089 117.873 28.6956 117.845C26.302 117.541 24.4868 115.489 24.4725 113.072C24.4536 110.398 26.6148 108.209 29.288 108.19C31.9612 108.171 34.151 110.332 34.1652 113.005C34.1652 113.621 34.0609 114.214 33.8429 114.768C33.7244 115.072 33.5775 115.361 33.4069 115.636L42.1422 119.864L48.8252 110.18C48.5456 110.062 48.2754 109.915 48.0194 109.74C47.536 109.413 47.1141 109.005 46.7729 108.526C46.1946 107.711 45.8818 106.749 45.8771 105.753C45.8581 103.08 48.0194 100.891 50.6926 100.872C50.8111 100.872 50.9344 100.872 51.0529 100.881C53.4464 101.042 55.3802 102.962 55.5556 105.355C55.6362 106.488 55.3376 107.574 54.693 108.498C54.3517 108.981 53.9346 109.394 53.4559 109.721C53.2047 109.896 52.9345 110.043 52.6549 110.161L59.4564 119.745L68.0495 115.446C67.8883 115.138 67.7604 114.816 67.6656 114.479C67.5518 114.072 67.4902 113.645 67.4902 113.214C67.4902 113.019 67.4997 112.825 67.5186 112.636C67.7935 110.199 69.8506 108.351 72.301 108.337C74.9742 108.318 77.164 110.479 77.1782 113.152C77.1971 115.702 75.2159 117.845 72.6707 118.02L72.3674 118.029C71.8744 118.029 71.391 117.963 70.9218 117.821C70.6184 117.726 70.3245 117.608 70.0496 117.456L65.7365 129.85C65.3431 130.992 64.2624 131.76 63.0538 131.77L38.7106 131.931V131.936Z" fill="#110A1D"/>
        <path d="M100.411 -0.959878V118.635C100.411 119.624 99.6098 120.415 98.6314 120.415C97.653 120.415 96.8516 119.614 96.8516 118.635V-0.959878C96.8516 -1.9487 97.653 -2.73975 98.6314 -2.73975C99.6098 -2.73975 100.411 -1.93829 100.411 -0.959878Z" fill="white"/>
        <path d="M4.86833 -1.22013V118.375C4.86833 119.364 4.06691 120.155 3.08849 120.155C2.11008 120.155 1.30859 119.354 1.30859 118.375V-1.22013C1.30859 -2.20895 2.11008 -3 3.08849 -3C4.06691 -3 4.86833 -2.19854 4.86833 -1.22013Z" fill="white"/>
    </symbol>
    <symbol viewBox="0 0 99.94134 99.62134" id="M">
        <path d="M50.3967 99.6208C23.074 99.6208 0.851562 77.3879 0.851562 50.0756C0.851562 22.7633 23.0844 0.530518 50.3967 0.530518C77.709 0.530518 99.9418 22.7633 99.9418 50.0756C99.9418 77.3879 77.709 99.6208 50.3967 99.6208ZM50.3967 3.83004C24.8955 3.83004 4.15108 24.5744 4.15108 50.0756C4.15108 75.5768 24.8955 96.3212 50.3967 96.3212C75.8979 96.3212 96.6423 75.5768 96.6423 50.0756C96.6423 24.5744 75.8979 3.83004 50.3967 3.83004Z" fill="#478BF9"/>
        <path d="M82.7174 14.7288L67.3792 30.0671L70.3968 33.0848L85.7351 17.7465L82.7174 14.7288Z" fill="#478BF9"/>
        <path d="M29.9242 67.5206L14.5859 82.8589L17.6035 85.8765L32.9418 70.5382L29.9242 67.5206Z" fill="#478BF9"/>
        <path d="M70.8616 67.5356L67.844 70.5532L83.1822 85.8915L86.1999 82.8738L70.8616 67.5356Z" fill="#478BF9"/>
        <path d="M17.5999 14.2671L14.5823 17.2847L29.9132 32.6156L32.9308 29.598L17.5999 14.2671Z" fill="#478BF9"/>
        <path d="M62.4808 51.4078C63.48 50.4085 63.48 48.7952 62.4808 47.8064L60.3574 45.6934C59.3582 44.6942 57.7449 44.6942 56.7561 45.6934L55.6111 46.8384L54.2892 45.5164C53.29 44.5172 51.6766 44.5172 50.6878 45.5164L49.5429 46.6718L48.221 45.3395C47.2217 44.3403 45.6084 44.3403 44.6195 45.3395L37.5937 52.3653C37.5417 52.4174 37.5417 52.5007 37.5937 52.5631C38.5305 53.4999 40.0606 53.4999 41.0078 52.5631L45.5355 48.0354C46.0247 47.5462 46.8158 47.5462 47.305 48.0354L47.6381 48.3684C47.7005 48.4308 47.7005 48.5245 47.6381 48.587L43.8597 52.3653C43.8077 52.4174 43.8077 52.5007 43.8597 52.5631C44.7965 53.4999 46.3266 53.4999 47.2738 52.5631L51.6142 48.2227C52.1034 47.7335 52.8945 47.7335 53.3837 48.2227L53.7167 48.5558C53.7688 48.6078 53.7688 48.6911 53.7167 48.7536L50.0737 52.3966C50.0217 52.4486 50.0217 52.5319 50.0737 52.5944C51.0105 53.5311 52.5405 53.5311 53.4877 52.5944L57.6824 48.3997C58.1716 47.9104 58.9626 47.9104 59.4519 48.3997L60.1701 49.1178C60.4511 49.3989 60.4511 49.8673 60.1701 50.1483L60.0556 50.2628C59.7745 50.5438 59.3062 50.5438 59.0251 50.2628L58.0987 49.3365C58.0467 49.2844 57.9634 49.2844 57.901 49.3365L56.2981 50.9394C56.246 50.9914 56.246 51.0747 56.2981 51.1371L57.7449 52.5839C58.7441 53.5832 60.3574 53.5832 61.3462 52.5839L62.4912 51.439L62.4808 51.4078Z" fill="#478BF9"/>
        <path d="M50.3978 12.084C29.414 12.084 12.4062 29.0917 12.4062 50.0755C12.4062 71.0593 29.414 88.067 50.3978 88.067C71.3816 88.067 88.3893 71.0593 88.3893 50.0755C88.3893 29.0917 71.3816 12.084 50.3978 12.084ZM51.9486 23.8145C58.0481 24.1684 63.5855 26.604 67.8738 30.4136L62.3885 35.8989C59.5261 33.4737 55.9143 31.9021 51.9486 31.569V23.8145ZM48.8572 23.8145V31.569C44.8916 31.8916 41.2798 33.4737 38.4174 35.8989L32.932 30.4136C37.2204 26.604 42.7578 24.1684 48.8572 23.8145ZM30.7463 32.5994L36.2316 38.0848C33.8064 40.9472 32.2347 44.5589 31.9016 48.5246H24.1472C24.5011 42.4252 26.9367 36.8878 30.7463 32.5994ZM24.1472 51.616H31.9016C32.2243 55.5817 33.8064 59.1935 36.2316 62.0559L30.7463 67.5412C26.9367 63.2529 24.5011 57.7155 24.1472 51.616ZM48.8572 76.3261C42.7578 75.9722 37.2204 73.5366 32.932 69.727L38.4174 64.2416C41.2798 66.6669 44.8916 68.2386 48.8572 68.5717V76.3261ZM34.4309 50.0651C34.4309 41.249 41.5817 34.0983 50.3978 34.0983C59.2139 34.0983 66.3646 41.249 66.3646 50.0651C66.3646 58.8812 59.2139 66.032 50.3978 66.032C41.5817 66.032 34.4309 58.8812 34.4309 50.0651ZM51.9486 76.3261V68.5717C55.9143 68.249 59.5261 66.6669 62.3885 64.2416L67.8738 69.727C63.5855 73.5366 58.0481 75.9722 51.9486 76.3261ZM70.0596 67.5412L64.5743 62.0559C66.9995 59.1935 68.5712 55.5817 68.9043 51.616H76.6587C76.3048 57.7155 73.8692 63.2529 70.0596 67.5412ZM68.9043 48.5246C68.5816 44.5589 66.9995 40.9472 64.5743 38.0848L70.0596 32.5994C73.8692 36.8878 76.3048 42.4252 76.6587 48.5246H68.9043Z" fill="#478BF9"/>
    </symbol>
    <symbol viewBox="0 0 99.53567 100" id="Shield">
        <path d="M49.9826 100C37.2841 100 24.5959 95.1705 14.9263 85.5009C-4.40252 66.1721 -4.40252 34.7276 14.9263 15.3987C24.2941 6.03095 36.7428 0.878662 49.9826 0.878662C63.2224 0.878662 75.6711 6.03095 85.0389 15.3987C104.368 34.7276 104.368 66.1721 85.0389 85.5009C75.3797 95.1601 62.6811 100 49.9826 100ZM17.5285 82.8988C35.4209 100.791 64.5339 100.791 82.4263 82.8988C100.319 65.0063 100.319 35.8933 82.4263 18.0009C73.7559 9.33049 62.2335 4.56336 49.9722 4.56336C37.7108 4.56336 26.1884 9.3409 17.5181 18.0009C-0.374391 35.8933 -0.374391 65.0063 17.5181 82.8988H17.5285Z" fill="#9DADF2"/>
        <path d="M49.3269 68.9929C49.5039 69.4196 49.9202 69.6693 50.3574 69.6693C50.5031 69.6693 50.6489 69.6382 50.7946 69.5861C54.2919 68.1185 57.4769 65.8493 59.9958 63.0182C60.4017 62.5602 60.3601 61.8525 59.9021 61.4466C59.4441 61.0407 58.7364 61.0823 58.3304 61.5403C56.0301 64.132 53.1261 66.2033 49.9306 67.5356C49.3686 67.775 49.0979 68.4308 49.3373 68.9929H49.3269Z" fill="#9DADF2"/>
        <path d="M68.8729 33.3122L50.3872 25.9221C50.1166 25.818 49.8251 25.818 49.5545 25.9221L31.0688 33.3122C30.642 33.4788 30.3713 33.8847 30.3713 34.3427V47.5824C30.3922 59.8022 38.1154 70.8457 49.5857 75.0508C49.7106 75.0925 49.8355 75.1133 49.9708 75.1133C50.1061 75.1133 50.231 75.0925 50.3559 75.0508C61.8263 70.8353 69.5495 59.8022 69.5703 47.5824V34.3427C69.5703 33.8847 69.2997 33.4788 68.8729 33.3122ZM67.3428 47.5824C67.322 58.6989 60.3482 68.8264 49.9812 72.813C39.6142 68.8264 32.63 58.6989 32.6092 47.5824V35.1025L49.9812 28.1599L67.3428 35.1025V47.5824Z" fill="#9DADF2"/>
        <path d="M42.2585 35.0502C41.9878 34.9357 41.686 34.9357 41.4049 35.0502L37.0021 36.8094C36.5754 36.9759 36.3047 37.3818 36.3047 37.8398V42.5341C36.3047 43.1482 36.8043 43.6478 37.4184 43.6478C38.0325 43.6478 38.5322 43.1482 38.5322 42.5341V38.5996L42.2272 37.1217C42.5082 37.0072 42.7164 36.7989 42.8413 36.5179C42.9558 36.2473 42.9558 35.9455 42.8413 35.6644C42.7268 35.3834 42.5187 35.1751 42.248 35.0502H42.2585Z" fill="#9DADF2"/>
        <path d="M78.1259 22.2998C70.6109 14.7743 60.6082 10.6421 49.9706 10.6421C39.333 10.6421 29.3407 14.7847 21.8152 22.2998C6.29596 37.819 6.29596 63.0808 21.8152 78.6105C29.5801 86.3754 39.7701 90.2473 49.9706 90.2473C60.171 90.2473 70.3611 86.365 78.1259 78.6105C93.6452 63.0913 93.6452 37.8295 78.1259 22.2998ZM72.6198 47.5823C72.651 61.7068 63.6267 74.0619 50.1684 78.3399C50.0434 78.3815 49.9081 78.3815 49.7728 78.3399C36.3144 74.0619 27.2902 61.7068 27.3214 47.5823V31.959C27.3214 31.6987 27.4775 31.4594 27.7273 31.3553L49.7312 22.56C49.8041 22.5288 49.8873 22.5184 49.9706 22.5184C50.0539 22.5184 50.1371 22.5288 50.21 22.56L72.2138 31.3657C72.4636 31.4594 72.6198 31.6987 72.6198 31.9694V47.5927V47.5823Z" fill="#9DADF2"/>
    </symbol>
    <symbol viewBox="0 0 99.684 99.389336" id="Soccer">
        <path d="M50.1272 99.3893C22.8045 99.3893 0.582031 77.1564 0.582031 49.8442C0.582031 22.5319 22.8149 0.299072 50.1272 0.299072C77.4394 0.299072 99.6723 22.5319 99.6723 49.8442C99.6723 77.1564 77.4394 99.3893 50.1272 99.3893ZM50.1272 3.59859C24.626 3.59859 3.88161 24.343 3.88161 49.8442C3.88161 75.3453 24.626 96.0897 50.1272 96.0897C75.6283 96.0897 96.3727 75.3453 96.3727 49.8442C96.3727 24.343 75.6283 3.59859 50.1272 3.59859Z" fill="white"/>
        <path d="M66.1977 18.8995C65.9479 18.8995 65.698 18.8474 65.4691 18.733C60.6707 16.3598 55.508 15.1524 50.1267 15.1524C44.7455 15.1524 39.5828 16.3598 34.7844 18.733C34.1495 19.0452 33.3897 18.9203 32.89 18.4206L24.3758 9.90639C24.0115 9.54208 23.8449 9.04246 23.9074 8.53244C23.9698 8.02242 24.2613 7.57486 24.6985 7.31465C32.3696 2.71403 41.1649 0.288818 50.1372 0.288818C59.1094 0.288818 67.9047 2.72444 75.5759 7.31465C76.013 7.57486 76.3044 8.02242 76.3669 8.53244C76.4293 9.04246 76.2524 9.54208 75.8985 9.90639L67.3842 18.4206C67.0615 18.7329 66.6453 18.8995 66.2081 18.8995H66.1977ZM50.1267 11.8528C55.6121 11.8528 60.8997 12.9978 65.8542 15.2564L72.0161 9.09455C65.3129 5.48275 57.7875 3.58834 50.1267 3.58834C42.466 3.58834 34.9405 5.48275 28.2373 9.09455L34.3993 15.2564C39.3538 12.9978 44.6414 11.8528 50.1267 11.8528Z" fill="white"/>
        <path d="M50.1249 99.3893C41.1527 99.3893 32.3574 96.9537 24.6862 92.3635C24.2491 92.1032 23.9576 91.6556 23.8952 91.1456C23.8327 90.6356 24.0097 90.136 24.3636 89.7717L32.8778 81.2574C33.3774 80.7578 34.1477 80.6329 34.7722 80.9451C39.5706 83.3183 44.7333 84.5257 50.1145 84.5257C55.4958 84.5257 60.6585 83.3183 65.4569 80.9451C66.0918 80.6329 66.8516 80.7578 67.3512 81.2574L75.8655 89.7717C76.2298 90.136 76.3963 90.6356 76.3339 91.1456C76.2714 91.6556 75.98 92.1032 75.5428 92.3635C67.8717 96.9641 59.0764 99.3893 50.1041 99.3893H50.1249ZM28.2356 90.5836C34.9387 94.1954 42.4642 96.0897 50.1249 96.0897C57.7857 96.0897 65.3111 94.1954 72.0143 90.5836L65.8524 84.4217C60.8979 86.6803 55.6103 87.8252 50.1249 87.8252C44.6396 87.8252 39.352 86.6803 34.3975 84.4217L28.2356 90.5836Z" fill="white"/>
        <path d="M91.2328 76.074C90.7957 76.074 90.3793 75.9075 90.0671 75.5952L81.5528 67.081C81.0532 66.5814 80.9283 65.8111 81.2406 65.1866C83.6137 60.3882 84.8211 55.2255 84.8211 49.8443C84.8211 44.463 83.6137 39.3003 81.2406 34.502C80.9283 33.867 81.0532 33.0968 81.5528 32.6076L90.0671 24.0933C90.4314 23.729 90.931 23.5625 91.441 23.6249C91.951 23.6874 92.3986 23.9788 92.6588 24.416C97.2594 32.0871 99.6846 40.8824 99.6846 49.8547C99.6846 58.8269 97.2594 67.6222 92.6588 75.2934C92.3986 75.7306 91.951 76.022 91.441 76.0845C91.3681 76.0845 91.3057 76.0845 91.2328 76.0845V76.074ZM84.7066 65.5613L90.8685 71.7232C94.4803 65.0201 96.3747 57.4946 96.3747 49.8339C96.3747 42.1731 94.4803 34.6477 90.8685 27.9445L84.7066 34.1064C86.9653 39.0609 88.1102 44.3485 88.1102 49.8339C88.1102 55.3192 86.9653 60.6068 84.7066 65.5613Z" fill="white"/>
        <path d="M9.02348 76.0741C8.95062 76.0741 8.88817 76.0741 8.82572 76.0636C8.31569 76.0012 7.86808 75.7097 7.60786 75.2726C3.00724 67.6014 0.582031 58.8061 0.582031 49.8339C0.582031 40.8616 3.00724 32.0664 7.60786 24.3952C7.86808 23.9581 8.31569 23.6666 8.82572 23.6042C9.33574 23.5417 9.83536 23.7186 10.1997 24.0725L18.7139 32.5868C19.2135 33.0864 19.3384 33.8566 19.0262 34.4811C16.653 39.2795 15.4456 44.4423 15.4456 49.8235C15.4456 55.2048 16.653 60.3675 19.0262 65.1658C19.3384 65.8008 19.2135 66.571 18.7139 67.0602L10.1997 75.5745C9.88741 75.8867 9.471 76.0636 9.03384 76.0636L9.02348 76.0741ZM9.38776 27.9445C5.77596 34.6477 3.88161 42.1731 3.88161 49.8339C3.88161 57.4946 5.77596 65.0201 9.38776 71.7233L15.5497 65.5614C13.291 60.6069 12.1461 55.3192 12.1461 49.8339C12.1461 44.3485 13.291 39.0609 15.5497 34.1064L9.38776 27.9445Z" fill="white"/>
        <path d="M50.1282 11.8528C29.1861 11.8528 12.1367 28.8917 12.1367 49.8443C12.1367 70.7969 29.1757 87.8358 50.1282 87.8358C71.0808 87.8358 88.1198 70.7969 88.1198 49.8443C88.1198 28.8917 71.0808 11.8528 50.1282 11.8528ZM71.5075 37.3644C73.3082 40.4453 74.4011 43.8073 74.755 47.3775C74.7654 47.5232 74.703 47.6585 74.5781 47.7314C71.8615 49.3968 69.4258 51.4368 67.3233 53.8204C67.2296 53.9349 67.0735 53.9766 66.9381 53.9245L62.2439 52.3944C62.1086 52.3528 62.0149 52.2383 61.994 52.0926C61.4632 48.2102 60.2559 44.4943 58.4031 41.0386C58.3407 40.9137 58.351 40.768 58.4343 40.6535L61.3383 36.6566C61.4112 36.5629 61.5257 36.5004 61.6402 36.5004C61.6714 36.5004 61.6922 36.5004 61.7235 36.5004C64.8252 37.1874 68.0102 37.4164 71.1745 37.1562C71.3202 37.1458 71.4555 37.2186 71.5284 37.3435L71.5075 37.3644ZM59.4336 52.7484C59.444 52.8524 59.4127 52.9565 59.3503 53.0293C56.8834 55.8709 53.74 58.1504 50.274 59.6076C50.1803 59.6492 50.0866 59.6492 49.9929 59.6076C46.5268 58.14 43.3834 55.8605 40.9166 53.0293C40.8541 52.9565 40.8229 52.8524 40.8333 52.7484C41.3121 48.9804 42.4883 45.379 44.3098 42.0482C44.3618 41.9546 44.4451 41.8921 44.5492 41.8713C46.3811 41.4862 48.2547 41.2884 50.1387 41.2884C52.0226 41.2884 53.8962 41.4862 55.7281 41.8713C55.8322 41.8921 55.9154 41.9546 55.9675 42.0482C57.789 45.379 58.9548 48.9804 59.444 52.7484H59.4336ZM58.8715 26.9141C58.8715 26.9141 58.9964 26.81 59.1213 26.81C59.1629 26.81 59.2149 26.81 59.267 26.8412C63.0974 28.3609 66.5218 30.859 69.1864 34.0544C69.3218 34.2105 69.2697 34.3771 69.2385 34.4395C69.2177 34.4916 69.124 34.6581 68.9054 34.6581C66.5426 34.6894 64.1903 34.4187 61.9108 33.8775C61.8171 33.8567 61.7338 33.7942 61.6818 33.7109C60.464 31.7021 59.4856 29.5371 58.7778 27.2888C58.7154 27.091 58.8298 26.9557 58.8819 26.9141H58.8715ZM44.8719 25.6651C48.3171 24.926 51.9497 24.926 55.395 25.6651C55.5303 25.6963 55.6448 25.8004 55.676 25.9357C56.415 29.0271 57.612 31.9831 59.2254 34.7206C59.2982 34.8455 59.2878 35.0016 59.2045 35.1265L56.3214 39.1026C56.2381 39.2171 56.0924 39.2795 55.957 39.2483C52.1475 38.4781 48.1193 38.4781 44.3098 39.2483C44.1745 39.2795 44.0288 39.2171 43.9455 39.1026L41.0623 35.1265C40.979 35.012 40.9686 34.8455 41.0415 34.7206C42.6548 31.9831 43.8518 29.0271 44.5908 25.9357C44.6221 25.8004 44.7366 25.6963 44.8719 25.6651ZM31.0804 34.0544C33.7451 30.8486 37.1695 28.3505 40.9998 26.8412C41.0519 26.8204 41.1039 26.81 41.1456 26.81C41.2809 26.81 41.3642 26.8829 41.3954 26.9141C41.4474 26.9662 41.5619 27.091 41.4994 27.2888C40.7917 29.5475 39.8133 31.7021 38.5955 33.7109C38.5434 33.7942 38.4602 33.8567 38.3665 33.8775C36.087 34.4187 33.7346 34.6894 31.3719 34.6581C31.1533 34.6581 31.0596 34.4916 31.0388 34.4395C31.0075 34.3771 30.9555 34.2105 31.0908 34.0544H31.0804ZM28.7593 37.3644C28.8217 37.2499 28.9466 37.177 29.0819 37.177C29.0819 37.177 29.1028 37.177 29.1132 37.177C32.2878 37.4268 35.4729 37.2082 38.5643 36.5213C38.71 36.49 38.8557 36.5421 38.939 36.667L41.8429 40.6639C41.9262 40.7784 41.9366 40.9346 41.8742 41.0491C40.0215 44.5047 38.814 48.2206 38.2832 52.103C38.2624 52.2383 38.1687 52.3528 38.0334 52.4049L33.3391 53.9349C33.2038 53.9765 33.0477 53.9349 32.954 53.8308C30.8514 51.4473 28.4158 49.4072 25.6991 47.7418C25.5846 47.6689 25.5118 47.5336 25.5222 47.3879C25.8761 43.8177 26.969 40.4453 28.7697 37.3748L28.7593 37.3644ZM29.8938 63.0112C29.8314 63.209 29.6545 63.2506 29.5816 63.261C29.5087 63.261 29.3422 63.2611 29.2277 63.0945C27.0106 59.6076 25.6991 55.5691 25.4389 51.4264C25.4285 51.2183 25.5638 51.1142 25.6263 51.0829C25.6887 51.0517 25.8553 50.9789 26.0218 51.1038C27.9474 52.4673 29.6961 54.0702 31.2261 55.8501C31.2886 55.923 31.3198 56.0167 31.3094 56.1207C31.1221 58.4627 30.6433 60.7838 29.8834 63.0217L29.8938 63.0112ZM40.1776 72.5143C36.9301 71.0884 34.0677 68.9962 31.6737 66.3108C31.58 66.2067 31.5488 66.0506 31.6009 65.9257C32.8187 62.9904 33.5889 59.899 33.8907 56.7348C33.9011 56.5891 34.0053 56.4642 34.1406 56.4226L38.7828 54.9133C38.7828 54.9133 38.8556 54.8925 38.8973 54.8925C39.0014 54.8925 39.0951 54.9342 39.1679 55.0174C41.7701 57.9318 45.028 60.305 48.5981 61.8767C48.7334 61.9391 48.8167 62.064 48.8167 62.2098V67.0914C48.8167 67.2371 48.7334 67.3725 48.5981 67.4245C45.6837 68.6839 42.9775 70.3806 40.5523 72.4519C40.4482 72.5456 40.2921 72.5664 40.1672 72.5039L40.1776 72.5143ZM56.5503 73.5448C56.5399 73.6176 56.4879 73.7842 56.2797 73.8363C52.262 74.8563 48.0153 74.8563 43.9975 73.8363C43.7998 73.7842 43.7373 73.6176 43.7269 73.5448C43.7165 73.4719 43.6957 73.3054 43.8726 73.1701C45.767 71.7649 47.8279 70.5887 50.0033 69.6832C50.097 69.6415 50.1907 69.6415 50.2843 69.6832C52.4493 70.5887 54.5103 71.7649 56.415 73.1701C56.5816 73.295 56.5712 73.4719 56.5608 73.5448H56.5503ZM68.614 66.3212C66.22 69.0066 63.3576 71.0884 60.1101 72.5143C59.9748 72.5768 59.8291 72.5456 59.725 72.4623C57.2998 70.391 54.6039 68.6944 51.6791 67.4349C51.5438 67.3725 51.4605 67.2476 51.4605 67.1018V62.2202C51.4605 62.0745 51.5438 61.9391 51.6791 61.8871C55.2493 60.3154 58.5176 57.9423 61.1093 55.0278C61.1822 54.9446 61.2759 54.9029 61.38 54.9029C61.4216 54.9029 61.4528 54.9029 61.4944 54.9237L66.1367 56.433C66.272 56.4746 66.3761 56.5995 66.3865 56.7452C66.6884 59.9095 67.4586 62.9904 68.6764 65.9361C68.7285 66.061 68.7076 66.2171 68.6036 66.3212H68.614ZM71.0496 63.1049C70.9351 63.2818 70.7582 63.2819 70.6957 63.2715C70.6228 63.2715 70.4563 63.2194 70.3834 63.0217C69.634 60.7838 69.1552 58.4627 68.9574 56.1207C68.9574 56.0271 68.9783 55.923 69.0407 55.8501C70.5708 54.0702 72.3194 52.4777 74.245 51.1038C74.3179 51.0517 74.3908 51.0309 74.4532 51.0309C74.5365 51.0309 74.5989 51.0621 74.6406 51.0829C74.703 51.1142 74.8487 51.2183 74.8279 51.4264C74.5677 55.5691 73.2562 59.6076 71.0392 63.0945L71.0496 63.1049Z" fill="white"/>
    </symbol>
</svg>