<svg xmlns="http://www.w3.org/2000/svg">
    <symbol viewBox="0 0 99.92233 100.29" id="Crown">
        <path d="M14.6172 85.6719C-4.87255 66.1822 -4.87255 34.4735 14.6172 14.9837C34.1069 -4.50598 65.8156 -4.50598 85.3053 14.9837C104.795 34.4735 104.795 66.1822 85.3053 85.6719C65.8156 105.162 34.1069 105.162 14.6172 85.6719ZM82.9497 17.3394C64.7586 -0.851653 35.1638 -0.851653 16.9775 17.3394C-1.2135 35.5304 -1.2135 65.1253 16.9775 83.3116C35.1686 101.503 64.7634 101.503 82.9497 83.3116C101.141 65.1205 101.141 35.5257 82.9497 17.3394Z" fill="white"/>
        <path d="M83.4893 39.7251C83.3139 39.5498 83.1717 39.327 83.0912 39.0805C81.3612 33.9616 78.5363 29.4257 74.6971 25.5865C70.8626 21.7521 66.322 18.9272 61.2031 17.1925C60.5253 16.9603 60.0703 16.3299 60.0703 15.6142V3.46628C60.0703 2.95439 60.3073 2.47093 60.7102 2.15337C61.1178 1.83581 61.6439 1.7268 62.1368 1.85003C70.8863 4.03978 78.8965 8.58043 85.2951 14.9838C91.6937 21.3871 96.2344 29.3925 98.4241 38.1421C98.5474 38.6397 98.4336 39.1658 98.1208 39.5734C97.8032 39.9811 97.3198 40.2133 96.8079 40.2133H84.66C84.205 40.2133 83.7879 40.0285 83.4798 39.7204L83.4893 39.7251ZM77.0527 23.2309C80.9677 27.1459 83.9206 31.734 85.8449 36.8813H94.6324C92.4237 29.5252 88.4091 22.8043 82.9442 17.3394C77.4793 11.8745 70.7584 7.85999 63.4071 5.65603V14.4435C68.5544 16.3631 73.1424 19.3159 77.0574 23.2356L77.0527 23.2309Z" fill="white"/>
        <path d="M14.616 85.6718C8.21737 79.2732 3.67197 71.2631 1.48222 62.5136C1.35899 62.0159 1.47275 61.4898 1.78557 61.0869C2.10313 60.6793 2.58656 60.447 3.09845 60.447H15.2464C15.9621 60.447 16.5972 60.902 16.8247 61.5798C18.5547 66.6987 21.3795 71.2346 25.2187 75.0738C29.0531 78.9082 33.5938 81.7331 38.7127 83.4678C39.3905 83.6953 39.8455 84.3305 39.8455 85.0462V97.1941C39.8455 97.706 39.6085 98.1894 39.2056 98.507C38.798 98.8245 38.2719 98.9335 37.7742 98.8103C29.0247 96.6206 21.0194 92.0799 14.616 85.6813V85.6718ZM5.28348 63.7743C7.49219 71.1304 11.5067 77.8513 16.9716 83.3162C22.4365 88.7811 29.1575 92.7956 36.5135 95.0043V86.2169C31.3662 84.2973 26.7781 81.3444 22.8631 77.4294C18.9481 73.5144 15.9952 68.9264 14.0709 63.7791H5.28348V63.7743Z" fill="white"/>
        <path d="M60.5663 98.365C60.2535 98.0521 60.0781 97.6303 60.0781 97.1848V85.0369C60.0781 84.3212 60.5331 83.6861 61.2109 83.4586C66.3298 81.7286 70.8657 78.9037 74.7049 75.0645C78.5441 71.2253 81.3642 66.6894 83.0989 61.5705C83.3264 60.8927 83.9616 60.4377 84.6773 60.4377H96.8252C97.3371 60.4377 97.8205 60.6747 98.1381 61.0776C98.4556 61.4805 98.5647 62.0113 98.4414 62.5043C96.2469 71.2538 91.7063 79.2592 85.3076 85.6625C78.909 92.0659 70.8989 96.6065 62.1494 98.7963C61.6517 98.9195 61.1256 98.8058 60.7227 98.4929C60.6706 98.4455 60.6185 98.4029 60.5711 98.3555L60.5663 98.365ZM63.4102 86.2123V94.9998C70.7662 92.7911 77.4871 88.7765 82.952 83.3116C88.4169 77.8467 92.4267 71.1258 94.6402 63.7698H85.8527C83.9331 68.9171 80.9803 73.5004 77.0605 77.4201C73.1455 81.3351 68.5575 84.2927 63.4102 86.2123Z" fill="white"/>
        <path d="M1.91901 39.7251C1.87161 39.6777 1.82423 39.6256 1.78631 39.5734C1.46875 39.1706 1.35973 38.6397 1.48296 38.142C3.67271 29.3925 8.21337 21.3824 14.6167 14.9838C21.0201 8.58516 29.0254 4.03977 37.775 1.85002C38.2726 1.72679 38.7988 1.84053 39.2016 2.15335C39.6045 2.47092 39.8415 2.95438 39.8415 3.46627V15.6142C39.8415 16.3299 39.3865 16.965 38.7087 17.1925C33.5898 18.9225 29.0539 21.7474 25.2147 25.5865C21.3803 29.421 18.5554 33.9616 16.8207 39.0805C16.5932 39.7583 15.9581 40.2133 15.2424 40.2133H3.09448C2.64895 40.2133 2.22235 40.0379 1.91427 39.7299L1.91901 39.7251ZM36.5095 5.65601C29.1535 7.86472 22.4325 11.8793 16.9676 17.3442C11.5027 22.8091 7.49293 29.53 5.27948 36.886H14.0669C15.9865 31.7387 18.9393 27.1554 22.8591 23.2356C26.7741 19.3206 31.3622 16.3678 36.5095 14.4435V5.65601Z" fill="white"/>
        <path d="M77.0565 23.2309C62.1169 8.29129 37.8022 8.28655 22.8626 23.2309C7.91827 38.1752 7.92301 62.4852 22.8626 77.4248C37.8022 92.3644 62.1122 92.3692 77.0565 77.4248C92.0009 62.4805 91.9961 38.1705 77.0565 23.2309Z" fill="white"/>
        <path d="M63.7833 64.0054L36.2557 64.188C35.0961 64.1957 34.1622 65.1419 34.1699 66.3015L34.1764 67.2827C34.1841 68.4423 35.1304 69.3761 36.29 69.3684L63.8177 69.1858C64.9773 69.1781 65.9111 68.2318 65.9034 67.0722L65.8969 66.0911C65.8892 64.9315 64.9429 63.9977 63.7833 64.0054Z" fill="#110A1D"/>
        <path d="M40.0062 47.3892C39.7076 47.3892 39.4043 47.3228 39.1294 47.1901L36.9823 46.1521C36.0486 45.6971 35.622 44.5927 36.0106 43.6306L36.9965 41.1754C37.2999 40.4265 38.0156 39.9383 38.8213 39.9336C39.1673 39.9336 39.5086 40.0189 39.8119 40.1943L42.3714 41.6541C42.8501 41.9243 43.1961 42.3935 43.3193 42.9338C43.4425 43.4742 43.3335 44.0429 43.0207 44.4979L41.6178 46.5313C41.2528 47.0621 40.6461 47.3844 40.0015 47.3844L40.0062 47.3892Z" fill="#110A1D"/>
        <path d="M59.8211 47.2564C59.1765 47.2564 58.5651 46.9484 58.1954 46.4223L56.8066 44.4648C56.4843 44.0145 56.3706 43.4457 56.4844 42.9054C56.5981 42.3651 56.9394 41.8911 57.4181 41.6114L60.0581 40.0616C60.3567 39.8862 60.698 39.7914 61.044 39.7867C61.8497 39.7819 62.5749 40.2606 62.8877 41.0048L63.8831 43.3888C64.2812 44.3463 63.8689 45.4601 62.9446 45.9246L60.698 47.0479C60.4278 47.1806 60.1244 47.2564 59.8258 47.2564H59.8211Z" fill="#110A1D"/>
        <path d="M37.8437 62.3478C36.635 62.3573 35.5497 61.5989 35.1373 60.4614L30.5445 47.8206C30.2507 47.9628 29.9378 48.0718 29.6203 48.1523C29.2458 48.2471 28.8666 48.2945 28.4827 48.2945C28.26 48.2945 28.0419 48.2851 27.8286 48.2566C25.4351 47.9533 23.6198 45.901 23.6056 43.4837C23.5866 40.8105 25.7479 38.6208 28.4211 38.6018C31.0943 38.5829 33.2841 40.7442 33.2983 43.4174C33.2983 44.0335 33.194 44.626 32.976 45.1805C32.8575 45.4839 32.7106 45.773 32.54 46.0479L41.2752 50.2757L47.9583 40.5925C47.6786 40.474 47.4084 40.3271 47.1525 40.1517C46.669 39.8247 46.2472 39.417 45.9059 38.9383C45.3277 38.1231 45.0149 37.1609 45.0101 36.1656C44.9912 33.4924 47.1525 31.3027 49.8257 31.2837C49.9442 31.2837 50.0674 31.2837 50.1859 31.2932C52.5795 31.4543 54.5133 33.3739 54.6886 35.7675C54.7692 36.9003 54.4706 37.9857 53.826 38.9099C53.4848 39.3933 53.0676 39.8057 52.5889 40.1327C52.3377 40.3081 52.0676 40.455 51.7879 40.5735L58.5894 50.1573L67.1825 45.8583C67.0214 45.5502 66.8934 45.2279 66.7987 44.8914C66.6849 44.4838 66.6233 44.0572 66.6233 43.6259C66.6233 43.4316 66.6327 43.2373 66.6517 43.0477C66.9266 40.6115 68.9836 38.763 71.4341 38.7487C74.1073 38.7298 76.297 40.8911 76.3112 43.5643C76.3302 46.1143 74.349 48.2566 71.8038 48.432L71.5004 48.4415C71.0075 48.4415 70.5241 48.3751 70.0548 48.2329C69.7515 48.1381 69.4576 48.0196 69.1827 47.868L64.8696 60.2623C64.4762 61.4046 63.3955 62.1724 62.1869 62.1819L37.8437 62.3431V62.3478Z" fill="#110A1D"/>
    </symbol>
    <symbol viewBox="0 0 99.09067 99.344" id="M">
        <path d="M49.545 99.3437C22.2224 99.3437 -0.00012207 77.1108 -0.00012207 49.7985C-0.00012207 22.4863 22.2328 0.253418 49.545 0.253418C76.8573 0.253418 99.0901 22.4863 99.0901 49.7985C99.0901 77.1108 76.8573 99.3437 49.545 99.3437ZM49.545 3.55294C24.0439 3.55294 3.29946 24.2974 3.29946 49.7985C3.29946 75.2997 24.0439 96.0441 49.545 96.0441C75.0462 96.0441 95.7906 75.2997 95.7906 49.7985C95.7906 24.2974 75.0462 3.55294 49.545 3.55294Z" fill="white"/>
        <path d="M81.8732 14.4444L66.5349 29.7827L69.5525 32.8003L84.8908 17.462L81.8732 14.4444Z" fill="white"/>
        <path d="M29.0763 67.2433L13.738 82.5815L16.7556 85.5991L32.0939 70.2609L29.0763 67.2433Z" fill="white"/>
        <path d="M70.0173 67.2405L66.9998 70.2581L82.338 85.5963L85.3556 82.5787L70.0173 67.2405Z" fill="white"/>
        <path d="M16.7673 13.9795L13.7498 16.9971L29.0807 32.328L32.0983 29.3104L16.7673 13.9795Z" fill="white"/>
        <path d="M61.641 51.1309C62.6402 50.1317 62.6402 48.5183 61.641 47.5295L59.5176 45.4165C58.5183 44.4173 56.905 44.4173 55.9162 45.4165L54.7712 46.5615L53.4494 45.2396C52.4501 44.2404 50.8368 44.2404 49.848 45.2396L48.703 46.395L47.3811 45.0627C46.3819 44.0634 44.7685 44.0634 43.7797 45.0627L36.7539 52.0885C36.7018 52.1405 36.7018 52.2238 36.7539 52.2863C37.6907 53.223 39.2208 53.223 40.1679 52.2863L44.6957 47.7585C45.1849 47.2693 45.9759 47.2693 46.4652 47.7585L46.7982 48.0916C46.8607 48.154 46.8607 48.2477 46.7982 48.3101L43.0199 52.0885C42.9679 52.1405 42.9679 52.2238 43.0199 52.2863C43.9567 53.223 45.4867 53.223 46.4339 52.2863L50.7743 47.9459C51.2635 47.4567 52.0546 47.4567 52.5438 47.9459L52.8768 48.2789C52.9289 48.331 52.9289 48.4142 52.8768 48.4767L49.2338 52.1197C49.1818 52.1718 49.1818 52.255 49.2338 52.3175C50.1706 53.2543 51.7007 53.2543 52.6479 52.3175L56.8425 48.1228C57.3317 47.6336 58.1228 47.6336 58.612 48.1228L59.3302 48.841C59.6112 49.122 59.6112 49.5904 59.3302 49.8714L59.2157 49.986C58.9347 50.267 58.4663 50.267 58.1853 49.986L57.2589 49.0596C57.2069 49.0075 57.1236 49.0075 57.0611 49.0596L55.4582 50.6625C55.4062 50.7145 55.4062 50.7978 55.4582 50.8603L56.905 52.3071C57.9043 53.3063 59.5176 53.3063 60.5064 52.3071L61.6514 51.1621L61.641 51.1309Z" fill="white"/>
        <path d="M49.5461 11.7966C28.5623 11.7966 11.5546 28.8043 11.5546 49.7882C11.5546 70.772 28.5623 87.7796 49.5461 87.7796C70.5299 87.7796 87.5376 70.772 87.5376 49.7882C87.5376 28.8043 70.5299 11.7966 49.5461 11.7966ZM51.097 23.5272C57.1964 23.881 62.7338 26.3167 67.0222 30.1262L61.5368 35.6116C58.6744 33.1864 55.0626 31.6147 51.097 31.2816V23.5272ZM48.0056 23.5272V31.2816C44.0399 31.6043 40.4281 33.1864 37.5657 35.6116L32.0804 30.1262C36.3687 26.3167 41.9061 23.881 48.0056 23.5272ZM29.8946 32.312L35.3799 37.7974C32.9547 40.6598 31.383 44.2716 31.0499 48.2373H23.2955C23.6494 42.1378 26.085 36.6004 29.8946 32.312ZM23.2955 51.3286H31.0499C31.3726 55.2943 32.9547 58.9061 35.3799 61.7685L29.8946 67.2538C26.085 62.9655 23.6494 57.4281 23.2955 51.3286ZM48.0056 76.0387C41.9061 75.6848 36.3687 73.2492 32.0804 69.4396L37.5657 63.9543C40.4281 66.3795 44.0399 67.9512 48.0056 68.2843V76.0387ZM33.5792 49.7777C33.5792 40.9616 40.73 33.8109 49.5461 33.8109C58.3622 33.8109 65.5129 40.9616 65.5129 49.7777C65.5129 58.5938 58.3622 65.7446 49.5461 65.7446C40.73 65.7446 33.5792 58.5938 33.5792 49.7777ZM51.097 76.0387V68.2843C55.0626 67.9616 58.6744 66.3795 61.5368 63.9543L67.0222 69.4396C62.7338 73.2492 57.1964 75.6848 51.097 76.0387ZM69.2079 67.2538L63.7226 61.7685C66.1479 58.9061 67.7195 55.2943 68.0526 51.3286H75.8071C75.4532 57.4281 73.0175 62.9655 69.2079 67.2538ZM68.0526 48.2373C67.7299 44.2716 66.1479 40.6598 63.7226 37.7974L69.2079 32.312C73.0175 36.6004 75.4532 42.1378 75.8071 48.2373H68.0526Z" fill="white"/>
    </symbol>
    <symbol viewBox="0 0 99.10633 99.62667" id="Timer">
        <path d="M49.5528 99.6273C36.8542 99.6273 24.1661 94.7977 14.4965 85.1281C-4.83233 65.7992 -4.83233 34.3548 14.4965 15.0259C23.8643 5.65815 36.313 0.505859 49.5528 0.505859C62.7926 0.505859 75.2413 5.65815 84.6091 15.0259C103.938 34.3548 103.938 65.7992 84.6091 85.1281C74.9499 94.7873 62.2513 99.6273 49.5528 99.6273ZM17.0987 82.5259C34.9911 100.418 64.104 100.418 81.9965 82.5259C99.8889 64.6335 99.8889 35.5205 81.9965 17.6281C73.3261 8.95768 61.8037 4.19049 49.5424 4.19049C37.281 4.19049 25.7586 8.96809 17.0882 17.6281C-0.8042 35.5205 -0.8042 64.6335 17.0882 82.5259H17.0987Z" fill="#7DDACF"/>
        <path d="M51.3875 39.6426L42.207 52.5076H47.7132V61.6881L56.8936 48.8334H51.3875V39.6426Z" fill="#7DDACF"/>
        <path d="M49.5432 32.4917C39.4885 32.4917 31.3281 40.6521 31.3281 50.7068C31.3281 60.7616 39.4885 68.9011 49.5432 68.9011C59.598 68.9011 67.7584 60.7407 67.7584 50.7068C67.7584 40.6729 59.598 32.4917 49.5432 32.4917ZM49.5432 66.6528C40.7167 66.6528 33.5556 59.4917 33.5556 50.6652C33.5556 41.8387 40.7167 34.6776 49.5432 34.6776C58.3698 34.6776 65.531 41.8387 65.531 50.6652C65.531 59.4917 58.3698 66.6528 49.5432 66.6528Z" fill="#7DDACF"/>
        <path d="M77.7001 21.927C70.1851 14.4015 60.1823 10.2693 49.5447 10.2693C38.9071 10.2693 28.9148 14.4119 21.3893 21.927C5.87006 37.4462 5.87006 62.708 21.3893 78.2377C29.1542 86.0025 39.3442 89.8849 49.5447 89.8849C59.7451 89.8849 69.9352 86.0025 77.7001 78.2377C93.2194 62.7184 93.2194 37.4567 77.7001 21.927ZM49.5447 75.417C35.9302 75.417 24.845 64.3317 24.845 50.7172C24.845 44.701 26.9996 39.1845 30.5802 34.8753L27.5616 31.8568C26.6977 30.9929 26.6977 29.5877 27.5616 28.7134C28.4256 27.8391 29.8307 27.8495 30.7051 28.7134L33.7236 31.7319C37.4707 28.5989 42.1858 26.538 47.3276 26.1008V24.0607H45.2876C43.4869 24.0607 41.9984 22.5723 41.9984 20.7716V19.0542C41.9984 17.2327 43.4869 15.7651 45.2876 15.7651H53.8227C55.6234 15.7651 57.1118 17.2327 57.1118 19.0542V20.7716C57.1118 22.5723 55.6234 24.0607 53.8227 24.0607H51.7826V26.1008C56.9348 26.5484 61.6395 28.6093 65.3867 31.7319L68.4051 28.7134C69.269 27.8495 70.6742 27.8495 71.5485 28.7134C72.4125 29.5773 72.4125 30.9825 71.5485 31.8568L68.53 34.8753C72.1106 39.1845 74.2652 44.6906 74.2652 50.7172C74.2652 64.3317 63.18 75.417 49.5655 75.417H49.5447Z" fill="#7DDACF"/>
    </symbol>
    <symbol viewBox="0 0 99.657326 99.237335" id="World">
        <path d="M0.546753 50.4613C0.546753 23.1386 22.7796 0.905762 50.1023 0.905762C77.425 0.905762 99.6578 23.1386 99.6578 50.4613C99.6578 77.7839 77.425 100.017 50.1023 100.017C22.7796 100.017 0.546753 77.7839 0.546753 50.4613ZM96.0877 50.4613C96.0877 25.1058 75.4577 4.47592 50.1023 4.47592C24.7469 4.47592 4.11697 25.1058 4.11697 50.4613C4.11697 75.8167 24.7469 96.4466 50.1023 96.4466C75.4577 96.4466 96.0877 75.8167 96.0877 50.4613Z" fill="#478BF9"/>
        <path d="M0.544089 171.607C0.544089 170.618 1.34558 169.827 2.32399 169.827C3.3024 169.827 4.10389 170.629 4.10389 171.607C4.10389 196.963 24.7338 217.593 50.0892 217.593C75.4447 217.593 96.0746 196.963 96.0746 171.607C96.0746 170.618 96.8761 169.827 97.8545 169.827C98.8329 169.827 99.6343 170.629 99.6343 171.607C99.6343 198.93 77.4015 221.163 50.0788 221.163C22.7561 221.163 0.523315 198.93 0.523315 171.607H0.544089Z" fill="#478BF9"/>
        <path d="M98.1434 49.2644H76.4414V53.5423H98.1434V49.2644Z" fill="#478BF9"/>
        <path d="M23.4207 49.2644H1.71863V53.5423H23.4207V49.2644Z" fill="#478BF9"/>
        <path d="M52.4107 78.2419H48.1328V99.944H52.4107V78.2419Z" fill="#478BF9"/>
        <path d="M52.4107 2.86255H48.1328V24.5645H52.4107V2.86255Z" fill="#478BF9"/>
        <path d="M75.7858 24.2522C60.9431 9.40944 36.8678 9.40944 22.0147 24.2522C7.17201 39.0949 7.17201 63.1701 22.0147 78.0232C36.8574 92.8659 60.9326 92.8659 75.7858 78.0232C90.6285 63.1805 90.6285 39.1053 75.7858 24.2522ZM56.2487 27.4684C60.5787 28.8112 64.4611 31.3196 67.4796 34.7337L68.0625 35.3894L67.2091 35.5872C64.9504 36.118 62.5356 36.5552 60.0375 36.8778L59.5899 36.9403L59.465 36.5031C59.0487 35.0772 58.5595 33.7032 57.9974 32.4333C57.3 30.8408 56.5194 29.446 55.6659 28.2699L54.7291 26.9896L56.2487 27.458V27.4684ZM38.8767 49.9511L38.8976 49.4098C39.0017 46.1207 39.3659 42.9773 39.9905 40.0837L40.0842 39.6257L40.5525 39.6673C46.0274 40.1461 51.8771 40.1253 57.3209 39.6153L57.7892 39.5737L57.8933 40.0317C58.5283 42.9565 58.8925 46.1103 58.9862 49.4098V49.9511H38.8871H38.8767ZM58.9862 52.3659V52.9072C58.8717 56.2067 58.5074 59.3605 57.8725 62.2853L57.7684 62.7433L57.3 62.7017C51.8563 62.1916 46.0067 62.1812 40.5317 62.6496L40.0633 62.6912L39.9696 62.2333C39.3451 59.3396 38.9808 56.2067 38.8767 52.9072L38.8559 52.3659H58.9654H58.9862ZM48.9315 26.5629C51.9604 26.5629 55.0413 30.4036 56.9669 36.5968L57.1647 37.2213L56.509 37.2734C53.9484 37.4919 51.3047 37.6064 48.6505 37.6064C46.1836 37.6064 43.7271 37.5127 41.3331 37.315L40.6774 37.2629L40.8752 36.628C42.8008 30.4141 45.8922 26.5525 48.9315 26.5525V26.5629ZM30.2792 34.8481C33.3185 31.3821 37.2322 28.832 41.6142 27.4789L43.1443 27.0105L42.1971 28.3011C41.3436 29.4669 40.5525 30.872 39.8656 32.4542C39.3139 33.7032 38.8143 35.0979 38.3771 36.5968L38.2522 37.0236L37.8047 36.9715C35.2858 36.6593 32.8501 36.2429 30.5602 35.7121L29.6963 35.5143L30.2792 34.8481ZM24.2006 49.389C24.492 45.3297 25.7931 41.3744 27.9685 37.9291L28.1767 37.6064L28.5514 37.7001C31.216 38.3767 34.0887 38.9179 37.1072 39.3031L37.6694 39.3759L37.5548 39.938C36.9303 42.9565 36.5764 46.1519 36.4828 49.4411V49.9511H24.1693L24.211 49.389H24.2006ZM28.1767 64.7105L27.9685 64.3878C25.7931 60.953 24.492 56.9873 24.2006 52.9279L24.1589 52.3659H36.4619V52.8759C36.566 56.165 36.9303 59.3709 37.5445 62.379L37.6589 62.941L37.0968 63.0139C34.0887 63.399 31.2056 63.9403 28.541 64.6169L28.1663 64.7105H28.1767ZM41.6142 74.8485C37.2322 73.4954 33.3185 70.9453 30.2792 67.4792L29.6963 66.8131L30.5602 66.6153C32.8501 66.0949 35.2858 65.6681 37.8047 65.3558L38.2522 65.3038L38.3771 65.7306C38.8143 67.2294 39.3139 68.6242 39.8656 69.8732C40.5629 71.4657 41.3436 72.8605 42.1971 74.0367L43.1443 75.3273L41.6142 74.8589V74.8485ZM48.9315 75.7541C45.8922 75.7541 42.8008 71.8925 40.8752 65.6785L40.6774 65.0436L41.3331 64.9916C46.2981 64.596 51.5857 64.6064 56.509 65.0332L57.1647 65.0852L56.9669 65.7098C55.0309 71.8925 51.95 75.7437 48.9315 75.7437V75.7541ZM67.4796 67.5833C64.4611 70.9973 60.5683 73.5058 56.2487 74.8485L54.7291 75.3169L55.6659 74.0367C56.5194 72.8709 57.3 71.4657 57.9974 69.8732C58.549 68.593 59.0487 67.2294 59.465 65.8034L59.5899 65.3663L60.0375 65.4287C62.5356 65.7514 64.9504 66.1885 67.2091 66.7194L68.0625 66.9276L67.4796 67.5833ZM73.652 52.9279C73.3606 57.0289 72.0387 61.0363 69.8112 64.5127L69.603 64.8354L69.2283 64.7418C66.595 64.0444 63.7325 63.4927 60.7349 63.0868L60.1728 63.0139L60.2873 62.4623C60.9118 59.4438 61.2761 56.2275 61.3698 52.8863V52.3763H73.6832L73.6416 52.9383L73.652 52.9279ZM61.3906 49.9511V49.4411C61.2865 46.0999 60.9222 42.8732 60.2977 39.8651L60.1832 39.3135L60.7453 39.2406C63.743 38.8347 66.5949 38.283 69.2387 37.5856L69.6135 37.492L69.8216 37.8146C72.049 41.2911 73.3813 45.288 73.6624 49.3994L73.704 49.9615H61.401L61.3906 49.9511Z" fill="#478BF9"/>
        <path d="M0.484375 172.357V52.7616C0.484375 51.7728 1.28586 50.9817 2.26427 50.9817C3.24269 50.9817 4.04417 51.7832 4.04417 52.7616V172.357C4.04417 173.346 3.24269 174.137 2.26427 174.137C1.28586 174.137 0.484375 173.335 0.484375 172.357Z" fill="#478BF9"/>
        <path d="M96.0352 172.628V53.0323C96.0352 52.0435 96.8366 51.2524 97.815 51.2524C98.7934 51.2524 99.5949 52.0539 99.5949 53.0323V172.628C99.5949 173.616 98.7934 174.407 97.815 174.407C96.8366 174.407 96.0352 173.606 96.0352 172.628Z" fill="#478BF9"/>
    </symbol>
</svg>